Coordinates
version=1
nRows=33
nColumns=33
inDegrees=yes

Units are S.I. units (second, meters, Newtons, ...)
Angles are in degrees.

endheader
time	ground_thorax_rot_x	ground_thorax_rot_y	ground_thorax_rot_z	ground_thorax_tx	ground_thorax_ty	ground_thorax_tz	clav_prot_r	clav_elev_r	scapula_abduction_r	scapula_elevation_r	scapula_upward_rot_r	scapula_winging_r	shoulder_elv_r	plane_of_elev_r	axial_rot_r	elbow_flexion_r	pro_sup_r	wrist_flex_r	wrist_dev_r	clav_prot_l	clav_elev_l	scapula_abduction_l	scapula_elevation_l	scapula_upward_rot_l	scapula_winging_l	shoulder_elv_l	plane_of_elev_l	axial_rot_l	elbow_flexion_l	pro_sup_l	wrist_flex_l	wrist_dev_l	
3.8500	40.803913	13.718377	13.781205	-173.510279	816.712791	6.535804	13.904100	41.435914	41.105324	44.999203	-26.238848	1709.443622	-1917.177037	149.432745	-111.786191	1101.247245	-185.896838	8.790134	2.555191	6.675065	-45.000000	-36.958288	45.000000	-40.250032	-2425.886603	1345.634664	140.336244	139.606343	1462.373511	167.515664	-2.087065	-8.597255	
3.8600	40.764183	13.850475	14.064158	-169.570685	814.031209	6.488683	14.127625	41.584225	41.236510	44.998572	-26.000357	1709.596400	-1917.445653	149.476620	-112.344874	1100.926158	-193.398161	9.269864	2.578633	6.496382	-45.000000	-36.886009	45.000000	-40.213643	-2426.337620	1345.369667	140.238751	140.282428	1462.237284	165.024299	-2.309681	-8.948277	
3.8700	40.700287	13.989642	14.384444	-165.567386	811.277835	6.447556	14.351061	41.713338	41.343604	44.997441	-25.811305	1709.781682	-1917.694400	149.496521	-113.184306	1100.367252	-204.199620	9.924341	2.886439	6.316622	-45.000000	-36.803492	45.000000	-40.207007	-2426.786830	1345.107334	140.109404	141.125775	1462.023961	161.346093	-2.505481	-9.443384	
3.8800	40.607998	14.140297	14.739012	-161.508481	808.468648	6.413182	14.539790	41.808229	41.416392	44.995418	-25.707745	1709.998229	-1917.895917	149.430328	-114.847990	1099.162953	-223.959060	10.962803	3.932425	6.172530	-45.000000	-36.730617	45.000000	-40.217255	-2427.217087	1344.861036	139.880910	142.471235	1461.668797	154.605399	-2.604135	-10.286660	
3.8900	40.492034	14.305592	15.133107	-157.401744	805.620300	6.386275	14.707630	41.883121	41.464611	44.991786	-25.666624	1710.227730	-1918.068809	149.304089	-117.076796	1097.442710	-250.515227	12.278805	5.587023	6.046731	-45.000000	-36.644697	45.000000	-40.305638	-2427.654023	1344.642641	139.565370	144.318968	1461.150391	144.960842	-2.556893	-11.434501	
3.9000	40.348975	14.502625	15.579728	-153.255234	802.750180	6.367520	14.845244	41.937330	41.482027	44.985305	-25.700543	1710.456999	-1918.226940	149.123013	-119.677882	1095.325089	-281.852769	13.759265	7.725717	5.950356	-45.000000	-36.543120	45.000000	-40.495612	-2428.097945	1344.451517	139.177042	146.606370	1460.397671	132.029286	-2.242567	-12.835089	
3.9100	40.193172	14.706305	16.054240	-149.077184	799.875810	6.357590	14.989732	41.995564	41.496747	44.973626	-25.749179	1710.664479	-1918.414865	148.960861	-121.919372	1093.361815	-309.935676	15.064730	9.735911	5.846707	-45.000000	-36.408118	45.000000	-40.804436	-2428.576206	1344.269383	138.794620	148.964667	1459.409788	117.437320	-1.593250	-14.233021	
3.9200	40.019488	14.922492	16.555627	-144.876419	797.015162	6.357117	15.118097	42.064862	41.503257	44.952898	-25.774486	1710.846839	-1918.634551	148.841200	-123.735092	1091.630969	-333.691787	16.162014	11.505742	5.759890	-45.000000	-36.257391	45.000000	-41.216910	-2429.062424	1344.068248	138.419311	151.335180	1457.864209	98.173295	-0.183750	-15.583609	
3.9300	39.833606	15.119968	17.060349	-140.662731	794.186344	6.366827	15.253479	42.127449	41.528356	44.915234	-25.768090	1711.017862	-1918.896002	148.818848	-124.673748	1090.550418	-347.351780	16.818800	12.579207	5.652299	-45.000000	-36.090880	45.000000	-41.681518	-2429.569456	1343.826801	138.145236	153.300965	1455.939043	77.340740	1.808880	-16.633936	
3.9400	39.622095	15.306567	17.569290	-136.446724	791.407857	6.387504	15.358215	42.153741	41.553855	44.849254	-25.754728	1711.187314	-1919.175663	148.863791	-124.947149	1090.014547	-352.720479	17.112840	13.050422	5.556798	-45.000000	-35.940290	45.000000	-42.133320	-2430.057351	1343.542325	137.967350	154.751984	1453.764550	55.978410	4.207991	-17.360570	
3.9500	39.393458	15.421459	18.021522	-132.239908	788.698253	6.420142	15.480904	42.123906	41.621448	44.726916	-25.700332	1711.357693	-1919.452172	148.980851	-124.724234	1089.926197	-351.515578	17.113198	13.037721	5.418910	-45.000000	-35.826160	45.000000	-42.426847	-2430.523850	1343.223200	137.905499	155.607919	1451.813132	38.671977	6.383512	-17.744850	
3.9600	39.136365	15.465675	18.403630	-128.054492	786.076412	6.465870	15.582070	42.029059	41.727056	44.519354	-25.549810	1711.491448	-1919.704980	149.128255	-124.508093	1089.835010	-350.317655	17.104586	13.012074	5.275585	-45.000000	-35.781670	45.000000	-42.523801	-2430.935832	1342.893337	137.878142	156.179437	1450.107777	24.308958	8.239716	-17.987654	
3.9700	38.858448	15.391407	18.663312	-123.903877	783.561390	6.526037	15.677773	41.852935	41.911562	44.192927	-25.256253	1711.549221	-1919.938456	149.306490	-124.256773	1089.733661	-349.262531	17.085676	13.000002	5.094879	-45.000000	-35.825082	45.000000	-42.347056	-2431.306125	1342.576210	137.898829	156.472066	1448.995215	16.335468	9.330229	-18.093747	
3.9800	38.559220	15.196584	18.776607	-119.802109	781.172538	6.602065	15.716408	41.616133	42.170975	43.729204	-24.732177	1711.466888	-1920.175172	149.504026	-123.866390	1089.627834	-348.228115	17.062996	12.962261	4.920892	-45.000000	-35.986628	45.000000	-41.907932	-2431.621715	1342.282811	137.933612	156.569112	1448.376880	13.584310	9.780866	-18.109956	
3.9900	38.254230	14.834141	18.686287	-115.764146	778.929319	6.695492	15.716180	41.339046	42.538092	43.119618	-23.896182	1711.228193	-1920.417863	149.746281	-123.327832	1089.529077	-347.149156	17.045031	12.895675	4.730584	-45.000000	-36.291919	45.000000	-41.128617	-2431.883581	1342.001091	137.979944	156.571614	1448.154815	14.983312	9.713000	-18.087405	
4.0000	37.942147	14.288793	18.348930	-111.805369	776.851032	6.807894	15.587525	41.045923	43.013900	42.354043	-22.619826	1710.789594	-1920.678600	150.055259	-122.573834	1089.454084	-345.813181	17.049239	12.755370	4.570419	-45.000000	-36.796071	45.000000	-39.972264	-2432.062050	1341.707975	138.005653	156.605493	1447.942193	16.513347	9.625501	-18.079512	
4.0100	37.625359	13.633068	17.852829	-107.942000	774.956389	6.940874	15.367496	40.720689	43.542685	41.503244	-21.115945	1710.242255	-1920.940121	150.380268	-121.739427	1089.395774	-344.347962	17.068452	12.586781	4.458614	-45.000000	-37.452951	45.000000	-38.539822	-2432.180634	1341.406187	138.044941	156.611635	1447.735948	18.078534	9.519707	-18.083494	
4.0200	37.303019	12.923842	17.251491	-104.189927	773.262088	7.095994	15.042487	40.376502	44.050580	40.613028	-19.464210	1709.648614	-1921.187274	150.692354	-120.878326	1089.350104	-342.838634	17.092742	12.397162	4.411873	-45.000000	-38.245111	45.000000	-36.906267	-2432.236532	1341.098891	138.096077	156.568695	1447.540484	19.599531	9.402376	-18.093536	
4.0300	36.981401	12.233244	16.626121	-100.565030	771.781735	7.274618	14.651640	40.024118	44.467548	39.753427	-17.808898	1709.096890	-1921.416675	150.963972	-120.060487	1089.309252	-341.376678	17.115303	12.212252	4.430914	-45.000000	-39.127103	45.000000	-35.198329	-2432.244754	1340.794480	138.162653	156.461945	1447.349091	21.002462	9.274250	-18.100156	
4.0400	36.666738	11.605007	16.043003	-97.082450	770.524116	7.477751	14.224262	39.671007	44.772928	38.957432	-16.258418	1708.615202	-1921.629735	151.169251	-119.316678	1089.264826	-340.012678	17.131250	12.041896	4.502264	-45.000000	-40.034207	45.000000	-33.544456	-2432.222988	1340.505477	138.236236	156.286722	1447.166384	22.258560	9.134511	-18.100171	
4.0500	36.368903	11.128214	15.630938	-93.756876	769.492170	7.705727	13.829653	39.322564	44.938157	38.294945	-15.051034	1708.264165	-1921.830113	151.261860	-118.730826	1089.206622	-338.830361	17.136743	11.911867	4.625421	-45.000000	-40.845207	45.000000	-32.180003	-2432.214935	1340.258326	138.317299	156.022601	1446.995319	23.324781	8.975386	-18.087725	
4.0600	36.098752	10.776265	15.376013	-90.601575	768.681550	7.957995	13.491004	38.998448	45.000000	37.748130	-14.141989	1708.034158	-1922.004300	151.278828	-118.305245	1089.142663	-337.834560	17.132624	11.809815	4.748793	-45.000000	-41.522843	45.000000	-31.117571	-2432.228536	1340.056592	138.384838	155.724143	1446.841910	24.220653	8.809015	-18.064211	
4.0700	35.861995	10.459924	15.140268	-87.628291	768.080678	8.232889	13.167299	38.693548	45.000000	37.279463	-13.349056	1707.891308	-1922.158485	151.263573	-117.997366	1089.078028	-336.987426	17.126999	11.739397	4.889645	-45.000000	-42.202376	45.000000	-30.107782	-2432.221014	1339.870306	138.437806	155.479696	1446.702661	24.995206	8.648238	-18.036304	
4.0800	35.659560	10.136314	14.885713	-84.846489	767.671070	8.527579	12.848081	38.406902	45.000000	36.843912	-12.563942	1707.792064	-1922.282758	151.276586	-117.746615	1089.020085	-336.254388	17.121734	11.679732	5.003295	-45.000000	-42.868058	45.000000	-29.097799	-2432.204326	1339.698378	138.479118	155.297042	1446.584117	25.702050	8.500438	-18.008881	
4.0900	35.486210	9.785877	14.584046	-82.262757	767.428672	8.838184	12.514397	38.123084	45.000000	36.430193	-11.739577	1707.737068	-1922.373241	151.328145	-117.544143	1088.975226	-335.636064	17.117599	11.628501	5.115388	-45.000000	-43.515668	45.000000	-28.014146	-2432.189443	1339.534736	138.528040	155.190888	1446.480112	26.352162	8.378383	-17.986641	
4.1000	35.337516	9.455898	14.308920	-79.880480	767.325582	9.160072	12.185667	37.858082	45.000000	36.038986	-10.920401	1707.712894	-1922.422001	151.434709	-117.386544	1088.953084	-335.138655	17.110017	11.565253	5.158282	-45.000000	-44.055876	45.000000	-27.029187	-2432.220989	1339.407012	138.580848	155.122356	1446.402378	26.940021	8.281190	-17.968205	
4.1100	35.206345	9.099971	13.991382	-77.699418	767.332283	9.488316	11.844407	37.606489	45.000000	35.650852	-10.036074	1707.697969	-1922.454355	151.571661	-117.245714	1088.941317	-334.734572	17.100147	11.497395	5.188709	-45.000000	-44.554811	45.000000	-26.000237	-2432.265037	1339.291369	138.631189	155.150313	1446.336359	27.466772	8.218974	-17.957602	
4.1200	35.095607	8.810882	13.780483	-75.715932	767.419859	9.818148	11.555616	37.381836	45.000000	35.311951	-9.305943	1707.698433	-1922.485277	151.696250	-117.136973	1088.928628	-334.449479	17.083869	11.433725	5.168011	-45.000000	-44.863448	45.000000	-25.229681	-2432.372678	1339.215978	138.668460	155.199913	1446.289439	27.903926	8.169165	-17.948528	
4.1300	35.006181	8.559711	13.641271	-73.922511	767.561779	10.145502	11.329997	37.181233	45.000000	35.020710	-8.720489	1707.720910	-1922.522709	151.784141	-117.063152	1088.912250	-334.274063	17.064668	11.384425	5.141168	-45.000000	-45.000000	45.000000	-24.641339	-2432.522514	1339.159847	138.684448	155.316734	1446.248299	28.239561	8.138732	-17.943467	
4.1400	34.941254	8.376812	13.594082	-72.309061	767.735249	10.467114	11.168835	37.016415	45.000000	34.791102	-8.309541	1707.753087	-1922.565972	151.840317	-117.014946	1088.901673	-334.194805	17.046154	11.349697	5.074927	-45.000000	-45.000000	45.000000	-24.301486	-2432.713655	1339.126946	138.676313	155.468975	1446.226539	28.471261	8.112772	-17.941209	
4.1500	34.897057	8.188036	13.524952	-70.863331	767.921852	10.780514	11.053803	36.869031	45.000000	34.594972	-7.940325	1707.806189	-1922.613316	151.877618	-116.954457	1088.894306	-334.169965	17.036264	11.338273	5.029209	-45.000000	-45.000000	45.000000	-23.952682	-2432.892641	1339.077114	138.659236	155.706324	1446.209082	28.616804	8.100302	-17.946210	
4.1600	34.869794	8.015467	13.455247	-69.572415	768.107690	11.083689	10.953489	36.733551	45.000000	34.431018	-7.616013	1707.869491	-1922.660896	151.909649	-116.868285	1088.893387	-334.183241	17.032577	11.339226	4.976117	-45.000000	-45.000000	45.000000	-23.642003	-2433.063525	1339.020162	138.636976	155.953649	1446.204746	28.693386	8.089955	-17.955384	
4.1700	34.851283	7.845164	13.375178	-68.423583	768.283079	11.374746	10.855772	36.603850	45.000000	34.280558	-7.311906	1707.949718	-1922.699241	151.943466	-116.757336	1088.895852	-334.218115	17.033093	11.342589	4.933615	-45.000000	-45.000000	45.000000	-23.327878	-2433.229927	1338.957312	138.620981	156.197718	1446.199941	28.716778	8.088963	-17.967972	
